<svg width="50" height="50" viewBox="0 0 50 50" fill="none" xmlns="http://www.w3.org/2000/svg">
<g clip-path="url(#clip0_63_65)">
<path d="M18.7526 0.000488281C29.093 0.000488281 37.5055 8.41279 37.5055 18.7531C37.5055 22.7941 36.2206 26.5406 34.0381 29.6057L35.6873 31.2551C35.8838 31.0625 36.1478 30.9542 36.4231 30.9542C36.7021 30.9542 36.9696 31.065 37.1668 31.2623L48.7807 42.8761C49.567 43.6621 50 44.7107 50 45.8285C50 46.9462 49.567 47.9947 48.7807 48.781C47.9944 49.5673 46.946 50.0004 45.8281 50.0004C44.7104 50.0004 43.6618 49.5673 42.8758 48.781L31.2618 37.1671C31.0645 36.9699 30.9536 36.7023 30.9536 36.4234C30.9536 36.1479 31.062 35.8839 31.2547 35.6873L29.6058 34.0382C26.5404 36.221 22.7938 37.5061 18.7525 37.5061C8.4124 37.5059 0 29.0935 0 18.753C0 8.41279 8.4125 0.000488281 18.7526 0.000488281ZM44.3634 47.2937C44.7521 47.6825 45.2725 47.8968 45.8282 47.8968C46.3841 47.8968 46.9045 47.6825 47.2936 47.2936C48.1013 46.4857 48.1013 45.1712 47.2934 44.3635L36.4233 33.4933L33.4932 36.4234L44.3634 47.2937ZM32.7419 34.1994L34.1995 32.742L32.715 31.2574C32.2561 31.7694 31.7695 32.256 31.2575 32.7149L32.7419 34.1994ZM18.7526 35.4023C27.9331 35.4023 35.402 27.9335 35.402 18.753C35.402 9.57275 27.9331 2.10391 18.7526 2.10391C9.57236 2.10391 2.10352 9.57265 2.10352 18.753C2.10352 27.9334 9.57227 35.4023 18.7526 35.4023Z" fill="#414141"/>
<path d="M29.068 8.43732C31.0118 10.381 32.3628 12.8255 32.9747 15.5063C33.1041 16.0726 32.7497 16.6363 32.1835 16.7657C32.1048 16.7837 32.0262 16.7924 31.9485 16.7924C31.4688 16.7924 31.0353 16.4619 30.9241 15.9745C30.4005 13.6802 29.2442 11.5884 27.5807 9.92491C27.1699 9.51427 27.1698 8.84835 27.5807 8.43751C27.9913 8.02677 28.6572 8.02667 29.068 8.43732Z" fill="#414141"/>
<path d="M5.32217 20.7395C5.88857 20.6101 6.45244 20.9646 6.58164 21.5308C7.88604 27.2457 12.8911 31.2369 18.7529 31.2369C19.3338 31.2369 19.8047 31.7079 19.8047 32.2887C19.8047 32.8695 19.3338 33.3404 18.7529 33.3404C15.4612 33.3404 12.2312 32.2101 9.65762 30.1579C7.08408 28.1055 5.26338 25.2079 4.53086 21.9988C4.40166 21.4326 4.75586 20.8687 5.32217 20.7395Z" fill="#414141"/>
<path d="M14.7921 25.734L14.1841 26.3418C13.9788 26.5472 13.7096 26.6499 13.4405 26.6499C13.1713 26.6499 12.9021 26.5474 12.6967 26.3418C12.286 25.9311 12.286 25.2652 12.6967 24.8543L13.3049 24.2461C13.0234 23.8593 12.7893 23.4487 12.6004 23.0228L11.768 23.2457C11.6767 23.2701 11.5852 23.2819 11.4951 23.2819C11.0307 23.2819 10.6057 22.9719 10.4799 22.502C10.3296 21.9409 10.6626 21.3643 11.2236 21.2139L12.0585 20.9903C12.0096 20.5216 12.0096 20.049 12.0585 19.5805L11.2236 19.3568C10.6626 19.2065 10.3296 18.6298 10.4799 18.0687C10.6302 17.5076 11.207 17.1742 11.768 17.325L12.6006 17.5481C12.7893 17.1221 13.0236 16.7116 13.3051 16.3247L12.6968 15.7163C12.2861 15.3056 12.2861 14.6398 12.697 14.2289C13.1076 13.8183 13.7735 13.8182 14.1844 14.229L14.7923 14.837C15.476 14.3378 16.2415 13.976 17.0555 13.7654L16.0721 12.0624C15.7815 11.5594 15.954 10.9161 16.457 10.6257C16.9599 10.3353 17.6032 10.5076 17.8937 11.0107L18.7528 12.4986L19.6123 11.0101C19.9028 10.5071 20.5462 10.3348 21.049 10.6252C21.552 10.9157 21.7245 11.5589 21.434 12.0619L20.4504 13.7653C21.2643 13.9757 22.0303 14.3375 22.714 14.8368L23.322 14.2288C23.7326 13.8181 24.3985 13.8181 24.8094 14.2287C25.2201 14.6395 25.2202 15.3053 24.8095 15.7161L24.2013 16.3245C24.4827 16.7113 24.7168 17.1219 24.9058 17.5479L25.7382 17.3248C26.2992 17.1743 26.876 17.5074 27.0263 18.0686C27.1766 18.6297 26.8435 19.2064 26.2826 19.3567L25.4477 19.5804C25.4967 20.0489 25.4967 20.5215 25.4477 20.9902L26.2826 21.2138C26.8436 21.3642 27.1767 21.9408 27.0263 22.5019C26.9005 22.9718 26.4755 23.2818 26.011 23.2818C25.9211 23.2818 25.8294 23.27 25.7382 23.2456L24.9058 23.0227C24.7169 23.4487 24.4828 23.8591 24.2013 24.246L24.8095 24.8542C25.2201 25.265 25.2201 25.9309 24.8095 26.3417C24.6041 26.5471 24.335 26.6498 24.0657 26.6498C23.7966 26.6498 23.5274 26.5473 23.3221 26.3417L22.7142 25.7338C21.5699 26.5693 20.1965 27.0212 18.7529 27.0212C17.3094 27.0212 15.9359 26.5693 14.7921 25.734ZM17.7014 15.7739C16.866 15.967 16.0989 16.3889 15.4776 17.0102C13.6718 18.8159 13.6717 21.7544 15.4772 23.5606C15.4774 23.5607 15.4775 23.5608 15.4776 23.5609C15.4777 23.561 15.4778 23.5611 15.4779 23.5612C16.0992 24.1822 16.866 24.604 17.7014 24.7971V15.7739ZM19.8048 24.797C20.6398 24.6039 21.4068 24.1822 22.028 23.5612C22.0281 23.5611 22.0283 23.561 22.0283 23.5609C22.0285 23.5608 22.0286 23.5607 22.0287 23.5606C23.8344 21.7544 23.8342 18.8159 22.0284 17.0102C21.4071 16.3889 20.6401 15.9671 19.8048 15.774V24.797Z" fill="#414141"/>
<path d="M32.2822 17.6016C32.2845 17.6016 32.2866 17.6016 32.2889 17.6016C32.8666 17.6016 33.3368 18.0683 33.3405 18.6468L33.3407 18.7527C33.3407 19.3335 32.8698 19.8045 32.289 19.8045C31.7081 19.8045 31.2372 19.3335 31.2372 18.7527L31.237 18.6599C31.2333 18.079 31.7013 17.6052 32.2822 17.6016Z" fill="#414141"/>
<path d="M5.21669 17.7009C5.79755 17.7009 6.26845 18.1718 6.26845 18.7527L6.26864 18.8439C6.27314 19.4247 5.80585 19.8993 5.22509 19.9038C5.22236 19.9038 5.21952 19.9038 5.21688 19.9038C4.63974 19.9038 4.16962 19.4382 4.16532 18.8601L4.16493 18.7527C4.16493 18.1718 4.63583 17.7009 5.21669 17.7009Z" fill="#414141"/>
</g>
<defs>
<clipPath id="clip0_63_65">
<rect width="50" height="50" fill="white" transform="matrix(-1 0 0 1 50 0)"/>
</clipPath>
</defs>
</svg>
