<svg width="50" height="50" viewBox="0 0 50 50" fill="none" xmlns="http://www.w3.org/2000/svg">
<path d="M26.9583 4.5625C26.9583 3.69956 26.2587 3 25.3958 3C24.5329 3 23.8333 3.69956 23.8333 4.5625V10.8125C23.8333 11.6754 24.5329 12.375 25.3958 12.375C26.2587 12.375 26.9583 11.6754 26.9583 10.8125V4.5625Z" fill="#414141"/>
<path d="M30.754 22.9058C29.9542 22.5821 29.0431 22.9679 28.7194 23.7679C28.3956 24.5677 28.7817 25.4787 29.5815 25.8025C31.2781 26.4894 32.6352 27.8462 33.3221 29.5431C33.6459 30.3429 34.5567 30.729 35.3567 30.405C36.1565 30.0812 36.5425 29.1704 36.2188 28.3704C35.2144 25.8894 33.2352 23.9102 30.754 22.9058Z" fill="#414141"/>
<path fill-rule="evenodd" clip-rule="evenodd" d="M25.3958 15.5C15.3281 15.5 7.16667 23.6615 7.16667 33.7292V44.6667H4.5625C3.69956 44.6667 3 45.3663 3 46.2292C3 47.0921 3.69956 47.7917 4.5625 47.7917H46.2292C47.0921 47.7917 47.7917 47.0921 47.7917 46.2292C47.7917 45.3663 47.0921 44.6667 46.2292 44.6667H43.625V33.7292C43.625 23.6615 35.4635 15.5 25.3958 15.5ZM26.9583 44.6667H40.5V33.7292C40.5 25.3873 33.7377 18.625 25.3958 18.625C17.054 18.625 10.2917 25.3873 10.2917 33.7292V44.6667H23.8333V41.275C22.0127 40.6315 20.7083 38.8952 20.7083 36.8542C20.7083 34.2654 22.8071 32.1667 25.3958 32.1667C27.9846 32.1667 30.0833 34.2654 30.0833 36.8542C30.0833 38.8952 28.779 40.6315 26.9583 41.275V44.6667ZM25.3958 38.4167C26.2588 38.4167 26.9583 37.7171 26.9583 36.8542C26.9583 35.9913 26.2588 35.2917 25.3958 35.2917C24.5329 35.2917 23.8333 35.9913 23.8333 36.8542C23.8333 37.7171 24.5329 38.4167 25.3958 38.4167Z" fill="#414141"/>
<path d="M45.2506 11.791C45.8608 12.4012 45.8608 13.3905 45.2506 14.0007L42.1256 17.1257C41.5154 17.7359 40.5262 17.7359 39.916 17.1257C39.3058 16.5155 39.3058 15.5262 39.916 14.916L43.041 11.791C43.6512 11.1808 44.6404 11.1808 45.2506 11.791Z" fill="#414141"/>
<path d="M7.75066 11.791C7.14047 11.1808 6.15114 11.1808 5.54095 11.791C4.93077 12.4012 4.93077 13.3905 5.54095 14.0007L8.66595 17.1257C9.27614 17.7359 10.2655 17.7359 10.8757 17.1257C11.4858 16.5155 11.4858 15.5262 10.8757 14.916L7.75066 11.791Z" fill="#414141"/>
</svg>
